<?xml version="1.0" ?><svg data-name="Layer 1" id="Layer_1" viewBox="0 0 32 32" xmlns="http://www.w3.org/2000/svg"><defs><style>.cls-1{fill:#ba63c6;}</style></defs><title/><path class="cls-1" d="M26.5,15H26V14a2,2,0,0,0-2-2H2a2,2,0,0,0-2,2v6A10.64,10.64,0,0,0,11,31h4a10.79,10.79,0,0,0,9.31-5H26.5a5.5,5.5,0,0,0,0-11ZM15,27H11a6.7,6.7,0,0,1-7-7V16H22v4A6.77,6.77,0,0,1,15,27Zm11.44-4.77h-.78a13.75,13.75,0,0,0,.2-2.31V18.77h.58a1.73,1.73,0,0,1,0,3.46Z"/><path class="cls-1" d="M13,10a2,2,0,0,0,2-2V2a2,2,0,1,0-4,0V8A2,2,0,0,0,13,10Z"/><path class="cls-1" d="M20,10a2,2,0,0,0,2-2V7a2,2,0,0,0-4,0V8A2,2,0,0,0,20,10Z"/><path class="cls-1" d="M6,10A2,2,0,0,0,8,8V6A2,2,0,0,0,4,6V8A2,2,0,0,0,6,10Z"/></svg>